<?xml version="1.0" encoding="utf-8"?>
<!-- Generator: Adobe Illustrator 16.0.0, SVG Export Plug-In . SVG Version: 6.00 Build 0)  -->
<!DOCTYPE svg PUBLIC "-//W3C//DTD SVG 1.1//EN" "http://www.w3.org/Graphics/SVG/1.1/DTD/svg11.dtd">
<svg version="1.1" id="图层_1" xmlns="http://www.w3.org/2000/svg" xmlns:xlink="http://www.w3.org/1999/xlink" x="0px" y="0px"
	 width="174.507px" height="174.51px" viewBox="0 0 174.507 174.51" enable-background="new 0 0 174.507 174.51"
	 xml:space="preserve">
<path d="M158.477,129.233c-10.907-8.488-42.345-22.594-42.345-22.594l-20.41,37.527l-3.026-8.939l5.587-11.283l-11.181-11.285
	l-11.183,11.285l5.594,11.283l-3.606,9.15L58.063,106.64c0,0-31.432,14.105-42.339,22.594
	c-10.908,8.484-15.723,45.275-15.723,45.275h174.506C174.507,174.511,171.311,139.224,158.477,129.233L158.477,129.233
	L158.477,129.233z M88.141,103.415c25.618-0.041,42.696-34.118,42.696-52.46C130.837,32.613,130.763,0,88.141,0
	c-42.62,0-42.697,32.617-42.697,50.959C45.443,69.301,62.525,103.456,88.141,103.415L88.141,103.415L88.141,103.415z"/>
</svg>
