<?xml version="1.0" encoding="utf-8"?>
<!-- Generator: Adobe Illustrator 16.0.0, SVG Export Plug-In . SVG Version: 6.00 Build 0)  -->
<!DOCTYPE svg PUBLIC "-//W3C//DTD SVG 1.1//EN" "http://www.w3.org/Graphics/SVG/1.1/DTD/svg11.dtd">
<svg version="1.1" id="图层_1" xmlns="http://www.w3.org/2000/svg" xmlns:xlink="http://www.w3.org/1999/xlink" x="0px" y="0px"
	 width="155.496px" height="153.877px" viewBox="0 0 155.496 153.877" enable-background="new 0 0 155.496 153.877"
	 xml:space="preserve">
<path d="M142.779,153.878c7.914-0.246,12.715-0.414,12.715-0.414s0-28.035-17.281-33.426c-17.283-5.393-40.309-10.801-40.309-16.189
	c0-5.391,0-10.801,0-10.801s0,5.408,17.273,0c17.271-5.393,17.271-5.393,17.271-5.393s-11.52-10.8-11.52-26.992
	c0-16.191,0-43.163-17.273-53.963c-9.699-6.056-19.268-6.966-25.91-6.644c-6.643-0.323-16.229,0.588-25.918,6.644
	C34.545,17.5,34.545,44.473,34.545,60.664c0,16.191-11.521,26.992-11.521,26.992s0,0,17.283,5.393c17.282,5.408,17.282,0,17.282,0
	s0,5.408,0,10.801c0,5.391-23.043,10.799-40.316,16.189C0,125.431,0,153.464,0,153.464s4.801,0.168,12.715,0.414H142.779z"/>
</svg>
