<?xml version="1.0" standalone="no"?>
<svg width="64" height="64" viewBox="0 0 512 384" version="1.1" xmlns="http://www.w3.org/2000/svg">
  <path d="M57 184c-9 7 -16 16 -22 26c-12 22 -17 42 -17 62c0 15 4 30 12 42c10 12 22 18 37 18c11 0 21 -4 30 -10c9 -7 16 -15 21 -26c11 -22 17 -45 17 -67c0 -5 0 -11 -1 -18s-4 -15 -9 -22c-10 -10 -22 -15 -37 -16c-12 0 -22 4 -31 11zM91 100c-13 0 -29 -2 -49 -5 c-15 -3 -28 -7 -42 -13v99c15 -15 36 -23 62 -23c6 0 12 0 18 1l-3 -9s-2 -8 -2 -13c0 -8 1 -15 5 -21c3 -6 7 -11 11 -16zM106 84c21 -14 36 -27 46 -37c9 -10 14 -23 14 -37v-1h-140c-14 0 -26 12 -26 26v15c3 4 6 8 9 11c5 4 11 8 16 10s9 4 12 5c12 4 24 5 35 7 c12 1 19 1 22 1h12zM343 375c14 0 26 -12 26 -26v-28v-286c0 -14 -12 -26 -26 -26h-145c2 7 3 15 3 23c0 19 -5 34 -13 46c-9 12 -18 22 -30 32l-19 15c-3 3 -6 6 -9 10s-5 8 -5 14s2 11 5 16c3 4 6 9 9 12c6 5 12 9 17 14s9 10 13 16c8 12 13 28 13 48c0 11 -2 21 -4 29 c-3 8 -6 15 -10 21s-8 12 -12 16s-9 7 -12 9h34l35 20h-111c-15 0 -31 -2 -48 -5c-17 -4 -33 -12 -49 -25c-2 -2 -3 -4 -5 -6v7v28c0 14 12 26 26 26h65h93h93h66zM363 261v29h-58v58h-28v-58h-59v-29h59v-58h28v58h58z" transform="matrix(1,0,0,-1,0,384)"/>
</svg>