<?xml version="1.0" standalone="no"?>
<svg width="64" height="64" viewBox="0 0 384 384" version="1.1" xmlns="http://www.w3.org/2000/svg">
  <path d="M320 224c35 0 64 -29 64 -64s-29 -64 -64 -64c-24 0 -44 13 -55 32h-10c-61 0 -115 25 -159 74v-115c19 -11 32 -31 32 -55c0 -35 -29 -64 -64 -64s-64 29 -64 64c0 24 13 44 32 55v210c-19 11 -32 31 -32 55c0 35 29 64 64 64s64 -29 64 -64c0 -19 -8 -37 -22 -49 c4 -9 17 -35 37 -58c32 -35 70 -53 112 -53h10c11 19 31 32 55 32zM64 384c-18 0 -32 -14 -32 -32s14 -32 32 -32s32 14 32 32s-14 32 -32 32zM64 0c18 0 32 14 32 32s-14 32 -32 32s-32 -14 -32 -32s14 -32 32 -32zM320 128c18 0 32 14 32 32s-14 32 -32 32 s-32 -14 -32 -32s14 -32 32 -32z" transform="matrix(1,0,0,-1,0,384)"/>
</svg>