<?xml version="1.0" standalone="no"?>
<svg width="64" height="64" viewBox="0 0 512 384" version="1.1" xmlns="http://www.w3.org/2000/svg">
  <path d="M325 322c2 -4 7 -12 3 -15c-3 -2 -10 -2 -13 5s0 11 -5 9s-7 3 -6 4c1 2 3 3 5 4c0 2 -4 8 2 7c4 -1 12 -10 14 -14zM344 277v0v0zM403 251c0 0 -2 0 0 0v0zM224 416c124 0 224 -100 224 -224s-100 -224 -224 -224s-224 100 -224 224s100 224 224 224zM141 19l8 -4 c3 -1 6 -2 10 -3c14 -5 28 -8 43 -10c28 -3 56 -1 83 8c15 5 30 11 43 20c6 4 6 16 10 24c8 16 -2 33 12 47c12 14 4 19 4 34c0 10 8 18 4 29c-1 4 -7 -3 -9 1c-5 7 -21 1 -28 2c-13 2 -24 14 -33 23c-5 5 0 20 1 26c4 15 0 33 19 38c5 1 5 9 10 11c5 1 10 3 15 4 c9 1 17 -2 26 -2c10 0 14 -5 22 -11c7 -6 13 -3 22 -5c7 0 0 5 -2 8c-3 2 -6 2 -8 2c-16 4 -23 22 -36 30c-6 3 -9 2 -11 0c-1 -1 1 -12 1 -12c-1 -3 -10 -4 -13 -5c-9 -2 -29 17 -15 22c4 1 27 5 24 15c-3 6 2 13 -5 14c-8 1 -7 7 -15 8c-5 1 -5 11 -5 14c0 9 2 6 9 7 c-17 11 -37 19 -57 24c-1 -3 -5 -12 -8 -12c-5 -1 -6 0 -9 -3c-9 -10 -16 -28 -25 -7c-4 11 5 19 2 28h-6h-3c6 -12 -5 -18 -8 -19c-8 0 -10 5 -17 4c-4 -1 -7 4 -11 2s-13 -8 -14 -12c-3 -12 6 -13 14 -6c6 6 17 12 25 6c6 -5 5 -9 5 -14s-1 -18 -9 -16c-4 1 -7 6 -11 3 c-8 -7 -18 -6 -29 -9c-10 -2 -16 -6 -25 -9c-8 -3 -11 -4 -12 -12c0 -2 0 -14 -3 -15c-5 -2 -8 22 -22 20c-12 -1 -30 -13 -25 -28c2 -5 28 -3 10 -14c-2 -1 2 -17 2 -20c1 -8 13 -18 21 -10c6 6 6 5 14 2c15 -8 33 -15 45 -27c6 -6 9 -24 17 -28c9 -5 19 -5 26 -14 c6 -7 -2 -19 -8 -23c-4 -2 -12 -24 -16 -29c-2 -4 -12 -6 -16 -7c-3 0 -7 -9 -9 -11c-7 -7 -8 -13 -17 -19c-18 -12 -22 -23 -18 -44c2 -8 5 -13 11 -16zM100 46l2 -2c7 -6 15 -11 23 -16c-21 21 -23 49 -21 78l3 24c1 3 -4 7 -4 11c0 10 0 5 -8 13c-4 4 -10 11 -12 17 c-7 16 1 30 10 43c9 14 -7 20 -10 32c-1 6 -7 6 -6 12c1 7 -4 5 -9 9c-12 8 -1 20 -7 26c-43 -70 -36 -162 16 -224c1 -1 0 -1 1 -2h1c3 -4 6 -8 9 -11s7 -6 10 -9z" transform="matrix(1,0,0,-1,0,384)"/>
</svg>