<?xml version="1.0" standalone="no"?>
<svg width="64" height="64" viewBox="0 0 512 384" version="1.1" xmlns="http://www.w3.org/2000/svg">
  <path d="M0 352h512v-256h-512v256zM193 128c-20 23 -33 58 -33 96s13 73 33 96h-97c0 -35 -29 -64 -64 -64v-80c27 0 48 -21 48 -48h113zM298 187c3 4 4 9 4 15c0 3 0 5 -1 8s-2 6 -4 8s-4 4 -7 6s-6 4 -10 5c-1 0 -4 1 -7 2s-5 0 -8 1v31c2 -1 5 -2 7 -3c4 -3 6 -7 7 -13h20 c0 5 -2 9 -4 13s-5 8 -9 11s-9 5 -14 6c-2 1 -5 2 -7 2v9h-18v-9c-2 0 -4 -1 -6 -2c-5 -1 -10 -2 -14 -5s-7 -6 -9 -10s-4 -9 -4 -14c0 -3 0 -5 1 -8s2 -5 4 -7s5 -5 8 -7s7 -4 12 -5c3 -1 6 0 8 -1v-35c-3 1 -6 2 -9 4s-5 4 -6 7s-2 6 -2 9h-20c0 -5 2 -11 4 -16 c3 -5 6 -8 10 -11s9 -6 15 -7c3 -1 5 -2 8 -2v-9h18v9c3 0 6 1 9 2c5 1 10 2 14 5s7 7 10 11zM480 176v80c-35 0 -64 29 -64 64h-97c20 -23 33 -58 33 -96s-13 -73 -33 -96h113c0 27 22 48 48 48zM64 224c0 21 11 32 32 32s32 -11 32 -32s-11 -32 -32 -32s-32 11 -32 32z M384 224c0 21 11 32 32 32s32 -11 32 -32s-11 -32 -32 -32s-32 11 -32 32zM273 213c2 -1 4 -2 6 -4s3 -5 3 -9c0 -2 0 -4 -1 -6s-2 -4 -4 -5s-5 -3 -8 -4c-1 0 -2 -1 -4 -1v31c3 -1 6 -1 8 -2zM236 257c1 2 3 3 5 4s4 2 6 2v-26c-4 1 -7 3 -9 5s-4 4 -4 8c0 3 1 5 2 7zM0 32 v32h512v-32h-512z" transform="matrix(1,0,0,-1,0,384)"/>
</svg>