<?xml version="1.0" standalone="no"?>
<svg width="64" height="64" viewBox="0 0 512 384" version="1.1" xmlns="http://www.w3.org/2000/svg">
  <path d="M509 57v-8v0v-1v-3v0c0 -3 -1 -5 -1 -7c-1 -12 -2 -18 -6 -20c-3 -2 -6 -2 -10 -2h-43s-10 1 -11 16v8c20 1 39 1 52 0c10 0 13 0 16 6c2 3 2 7 3 11zM3 57c1 -4 1 -8 3 -11c3 -6 6 -6 16 -6c13 1 32 1 52 0v-8c-1 -15 -8 -16 -11 -16h-43s-7 0 -10 2c-4 2 -6 8 -7 20v7 v0v3v1v0v8zM512 151c0 -31 -2 -58 -2 -68c0 -4 0 -11 -1 -18c-1 -4 -1 -8 -3 -11c-3 -6 -6 -6 -16 -6c-13 1 -32 1 -52 0c-13 0 -27 -2 -39 -2c-30 -1 -21 4 -34 4s-63 -2 -109 -2s-97 2 -110 2s-4 -5 -34 -4c-12 0 -25 2 -38 2c-20 1 -39 1 -52 0c-10 0 -13 0 -16 6 c-2 3 -2 7 -3 11c-1 7 -1 14 -1 18c0 10 -2 37 -2 68s4 61 6 64c1 2 8 9 26 21s17 10 20 18c-3 1 -5 3 -7 3c-4 0 -4 -3 -12 -3s-24 1 -28 5c-4 3 -5 5 -5 8s2 9 5 13s19 6 27 7s10 0 12 -1c4 -2 3 -22 3 -22l9 -1c5 13 12 41 24 62c13 23 26 30 32 32s10 2 48 6s69 5 96 5 s58 -1 96 -5s42 -4 48 -6s19 -9 32 -32c12 -21 19 -49 24 -62l9 1s-1 20 3 22c2 1 4 2 12 1s24 -3 27 -7s5 -10 5 -13s-1 -4 -5 -8s-20 -5 -28 -5s-8 3 -12 3c-2 0 -4 -2 -7 -3c3 -8 2 -6 20 -18s25 -19 26 -21c2 -3 6 -33 6 -64zM86 303c-5 -11 -11 -33 -10 -36 s-1 -5 15 -4s117 3 165 3s149 -2 165 -3s14 1 15 4s-5 25 -10 36s-17 31 -26 37c-2 1 -17 7 -54 9c-34 2 -72 3 -90 3s-56 -1 -90 -3c-37 -2 -52 -8 -54 -9c-7 -4 -21 -26 -26 -37zM123 178c7 2 11 2 11 2s-17 16 -48 25s-49 11 -66 10c0 0 -3 -16 0 -27s8 -10 16 -12 s13 -5 16 -4s7 4 12 4s29 -4 38 -4s14 4 21 6zM358 99c15 2 34 19 21 33c-18 19 -15 19 -55 24c-35 4 -61 4 -68 4s-33 0 -68 -4c-40 -5 -37 -5 -55 -24c-13 -14 6 -31 21 -33c14 -2 74 -3 102 -3s88 1 102 3zM492 188c3 11 0 27 0 27c-17 1 -35 -1 -66 -10s-48 -26 -48 -26 s4 1 11 -1s12 -6 21 -6s33 4 38 4s9 -3 12 -4s8 2 16 4s13 1 16 12z" transform="matrix(1,0,0,-1,0,384)"/>
</svg>