<?xml version="1.0" encoding="utf-8"?>
<!-- Generator: Adobe Illustrator 16.0.0, SVG Export Plug-In . SVG Version: 6.00 Build 0)  -->
<!DOCTYPE svg PUBLIC "-//W3C//DTD SVG 1.1//EN" "http://www.w3.org/Graphics/SVG/1.1/DTD/svg11.dtd">
<svg version="1.1" id="图层_1" xmlns="http://www.w3.org/2000/svg" xmlns:xlink="http://www.w3.org/1999/xlink" x="0px" y="0px"
	 width="200.195px" height="200px" viewBox="0 0 200.195 200" enable-background="new 0 0 200.195 200" xml:space="preserve">
<path d="M99.917,6.203C48.125,6.203,6.149,48.19,6.149,99.97c0,51.78,41.976,93.768,93.768,93.768
	c51.769,0,93.769-41.988,93.769-93.768C193.684,48.19,151.685,6.203,99.917,6.203z M124.018,136.281
	c-4.933,3.638-10.892,6.385-17.972,6.945v11.563H93.665v-11.746c-7.568-0.892-13.015-3.138-17.604-6.825
	c-6.081-4.847-7.938-10.023-9.132-16.52l18.631-4.555c0,6.117,6.323,13.125,15.75,13.125c5.615,0,12.331-2.748,12.257-10.061
	c-0.049-5.982-6.373-10.268-13.209-11.807c-7.082-1.588-21.392-6.458-25.348-10.805c-3.979-4.322-5.079-10.464-5.079-17.606
	c0-6.141,2.734-12.344,7.179-16.093c4.322-3.65,9.376-5.994,16.555-6.873V45.16h12.382v9.828c6.787,0.733,12.379,2.87,16.679,6.532
	c5.347,4.591,8.057,10.476,8.057,14.017l-18.607,4.371c0-4.59-6.885-10.256-11.572-10.256c-6.08,0-10.892,1.71-10.892,9.315
	c0,5.47,4.152,7.253,11.355,9.561c12.11,3.858,21.293,8.875,25.518,13.21c4.199,4.359,6.3,9.842,6.3,16.471
	C132.882,126.404,129.829,131.936,124.018,136.281z"/>
</svg>
