<?xml version="1.0" standalone="no"?>
<svg width="64" height="64" viewBox="0 0 320 384" version="1.1" xmlns="http://www.w3.org/2000/svg">
  <path d="M314 169c4 -10 7 -30 6 -44c-1 -16 -5 -37 -16 -51s-26 -24 -45 -31c-15 -6 -33 -10 -59 -11v-64h-40v64h-32v-64h-41v64h-87l9 48h26c9 0 9 0 12 1s4 4 5 7s2 8 2 17v173c0 9 -1 16 -2 18s-3 4 -6 6s-9 2 -18 2h-28v48h87v64h41v-64h32v64h40v-64c20 -1 33 -4 46 -9 c16 -6 28 -15 37 -27s12 -28 13 -45c1 -10 0 -20 -3 -28c-2 -8 -8 -16 -16 -23c-6 -6 -11 -9 -16 -11c9 -2 17 -6 25 -10c15 -8 23 -18 28 -30zM128 298v-74h32v74h-32zM128 86h32v90h-32v-90zM200 294v-66c6 3 9 7 13 12c5 6 7 12 7 20s-2 15 -6 21c-4 5 -8 11 -14 13z M229 107c8 7 10 15 10 26c0 9 -3 19 -8 25s-12 10 -20 13c-4 2 -6 2 -11 3v-82c2 0 5 1 7 2c10 4 14 6 22 13z" transform="matrix(1,0,0,-1,0,384)"/>
</svg>